<svg width="24" height="24" fill="none" xmlns="http://www.w3.org/2000/svg"><path fill-rule="evenodd" clip-rule="evenodd" d="M11.033 7.633c-.557.252-1.028 1.016-.644 1.99C8.248 8.9 8.334 5.895 9.663 5.09 10.99 4.287 12.276 2 12.276 2s1.29 2.284 2.616 3.09 1.412 3.811-.73 4.532c.385-.973-.086-1.733-.643-1.989-.557-.255-1.243-.849-1.243-1.314 0 .469-.686 1.059-1.243 1.314zm5.417 5.214v6.531h2.095S17.81 22 14.076 22H10.47C6.736 22 6 19.378 6 19.378h2.095v-6.53c0-1.082.895-1.967 1.99-1.967h1.425v-1.14a.76.76 0 01.763-.754.76.76 0 01.762.754v1.14h1.426c1.094 0 1.989.885 1.989 1.966z" fill="#BD9E59"/></svg>