<svg width="24" height="24" fill="none" xmlns="http://www.w3.org/2000/svg"><path fill-rule="evenodd" clip-rule="evenodd" d="M21.261 4.337c0 2.448-1.022 4.662-2.675 6.268a9.232 9.232 0 01-6.455 2.596 9.232 9.232 0 01-6.456-2.596C4.022 9 3 6.785 3 4.337c0-.81.114-1.593.323-2.337 1.928 2.718 5.152 4.5 8.808 4.502C15.786 6.5 19.01 4.718 20.938 2c.21.744.323 1.527.323 2.337zM6.016 12.869c1.689 1.194 3.81 1.906 6.115 1.906 2.303 0 4.425-.712 6.114-1.906l.407 5.076-3.536-1.981-2.984 6.032V22l-.001-.002-.002.002v-.004l-2.984-6.032-3.536 1.981.407-5.076z" fill="#BD9E59"/></svg>