<svg width="24" height="24" fill="none" xmlns="http://www.w3.org/2000/svg"><path d="M20.208 5.648a.31.31 0 00-.306-.142L16.449 6l.22-3.712a.307.307 0 00-.55-.17l-2.372 1.998a2.3 2.3 0 00-.278-.226c-.38-.265-.982-.52-1.842-.518-.86-.002-1.462.253-1.842.518a2.303 2.303 0 00-.278.226L7.135 2.12a.31.31 0 00-.333-.105.306.306 0 00-.216.274l.22 3.712-3.454-.495a.31.31 0 00-.306.142.302.302 0 00.008.333l1.999 2.87-1.653.751a.302.302 0 00.01.557l1.424.591c-.095.102-.2.222-.307.36-.16.208-.324.45-.451.72a2.074 2.074 0 00-.219.878c-.001.273.074.559.25.815a.85.85 0 00.247.237c.14.091.3.146.47.18.169.033.348.047.536.047.204 0 .42-.017.637-.044l-1.106 2.153a.305.305 0 00.353.432l2.41-.638c-.035.212-.067.417-.096.61-.063.42-.108.78-.12 1.033-.001.033-.003.065-.003.099 0 .268.05.54.123.813.112.41.28.819.447 1.197.166.376.33.718.432.973.149.373.37.714.679.97a1.79 1.79 0 001.16.415c.102 0 .205-.008.311-.023a1.61 1.61 0 00.664-.237c.135-.089.244-.198.327-.317.017-.024.03-.05.046-.075a1.247 1.247 0 00.52.474c.15.075.323.126.52.155.106.015.21.023.31.023a1.79 1.79 0 001.162-.416 2.38 2.38 0 00.679-.97c.135-.339.382-.834.597-1.36a6.92 6.92 0 00.281-.81c.074-.272.123-.544.123-.812 0-.034-.002-.067-.003-.1a12.036 12.036 0 00-.12-1.031c-.03-.194-.061-.4-.097-.61l2.41.637c.117.03.242-.01.319-.102a.302.302 0 00.035-.33l-1.106-2.153c.218.027.434.044.637.044.25 0 .486-.023.7-.088a1.22 1.22 0 00.305-.139c.094-.06.18-.14.246-.237.175-.258.25-.542.248-.815 0-.314-.092-.61-.218-.879a4.294 4.294 0 00-.688-1l-.07-.077 1.425-.591a.302.302 0 00.01-.557l-1.654-.751 1.999-2.87a.294.294 0 00.014-.335zm-3.622 6.95c-.967-.39-1.572-.673-1.85-.933-.212-.178-.673-.59-1.023-.906a5.163 5.163 0 01-.6 1.523c.54.56 1.092 3.43 1.24 4.72.146 1.29-.712 2.615-.958 3.223-.246.607-.855 1.021-.711-1.753.074-1.423.32-.839.074-1.423-.246-.585-1.13-2.117-1.13-2.117s-.884 1.534-1.13 2.118c-.246.585 0 0 .074 1.424.143 2.774-.467 2.36-.711 1.752-.246-.609-1.105-1.933-.957-3.223.147-1.29.698-4.161 1.24-4.72a5.448 5.448 0 01-.615-1.509c-.349.314-.8.718-1.01.893-.278.258-.883.543-1.849.933s-2.324.68-1.343-.259c.982-.94 2.111-1.63 2.111-1.63s.638-1.639 1.358-2.466c.505-.581 1.39-.49 1.873-.383a1.794 1.794 0 01-.417-1.173c0-.904.616-1.638 1.375-1.638s1.375.734 1.375 1.638c0 .46-.16.876-.417 1.173.483-.105 1.368-.197 1.873.383.72.827 1.358 2.466 1.358 2.466s1.129.69 2.11 1.63c.984.938-.374.646-1.34.257z" fill="#BD9E59"/></svg>