<svg width="24" height="24" fill="none" xmlns="http://www.w3.org/2000/svg"><path d="M7.317 18.732s.345.602 1.386.602v-.684l-1.386.082zM10.089 18.732s-.346.602-1.386.602v-.684l1.386.082z" fill="#ffffff"/><path d="M10.088 9.492H7.317v9.238h2.771V9.492z" fill="#ffffff"/><path d="M3.142 5.338c-.791-.456-1.603-.634-.83.673C3.085 7.32 4.325 9.87 6.337 9.87h6.445V6.84s-5.347-.078-6.445-.078c-1.097 0-3.195-1.425-3.195-1.425zM12.065 13.33h-6.69a.715.715 0 01-.712-.712v-.634c0-.392.32-.713.712-.713h6.69c.392 0 .713.321.713.713v.634c0 .392-.32.713-.713.713zM16.683 18.732s-.346.602-1.386.602v-.684l1.386.082zM13.911 18.732s.346.602 1.386.602v-.684l-1.386.082z" fill="#ffffff"/><path d="M13.914 18.732h2.771V9.494h-2.771v9.238z" fill="#ffffff"/><path d="M20.858 5.338c.791-.456 1.603-.634.83.673-.773 1.308-2.012 3.859-4.025 3.859h-6.445V6.84s5.348-.078 6.445-.078c1.097 0 3.195-1.425 3.195-1.425zM11.935 13.33h6.69c.392 0 .712-.32.712-.712v-.634a.715.715 0 00-.712-.713h-6.69a.715.715 0 00-.713.713v.634c0 .392.32.713.713.713z" fill="#ffffff"/></svg>