<svg width="24" height="24" fill="none" xmlns="http://www.w3.org/2000/svg"><path fill-rule="evenodd" clip-rule="evenodd" d="M11.768 2s4.616.152 5.643 5.95c1.026 5.795 3.133 6.305 3.133 6.305s-1.536 5.52-6.653 7.745c0 0 2.616-4.267 2.616-7.458 0-1.733-.468-4.595-4.735-4.595s-4.735 2.866-4.735 4.595C7.037 17.733 9.653 22 9.653 22 4.536 19.774 3 14.259 3 14.259s2.103-.51 3.13-6.308C7.155 2.15 11.767 2 11.767 2zM8.15 13.2c.73-2.042 3.618-1.964 3.618-1.964s2.891-.078 3.618 1.963c-.81 2.308-1.811 5.002-3.618 5.002-1.803 0-2.81-2.694-3.618-5.002z" fill="#ffffff"/></svg>