<svg width="24" height="24" fill="none" xmlns="http://www.w3.org/2000/svg"><path d="M5.336 3l13.575 13.774-2.436 2.472L6.474 9.1C4.634 7.232 5.336 3 5.336 3z" fill="#ffffff"/><path d="M21.641 21.308a1.215 1.215 0 01-1.734 0l-2.272-2.305a1.259 1.259 0 010-1.76 1.215 1.215 0 011.734 0l2.272 2.305a1.259 1.259 0 010 1.76z" fill="#ffffff"/><path d="M19.255 13.648c1.12 1.138.718 3.39-.9 5.029-1.62 1.64-3.839 2.05-4.957.913l5.857-5.942zM18.664 3L5.09 16.774l2.437 2.472 10-10.147C19.366 7.232 18.664 3 18.664 3z" fill="#ffffff"/><path d="M2.359 21.308c.478.485 1.26.485 1.734 0l2.272-2.305a1.259 1.259 0 000-1.76 1.215 1.215 0 00-1.735 0L2.36 19.548a1.259 1.259 0 000 1.76z" fill="#ffffff"/><path d="M4.746 13.648c-1.121 1.138-.719 3.39.9 5.029 1.619 1.64 3.838 2.05 4.956.913l-5.856-5.942z" fill="#ffffff"/></svg>