<svg width="24" height="24" fill="none" xmlns="http://www.w3.org/2000/svg"><path fill-rule="evenodd" clip-rule="evenodd" d="M13.877 5.888c0 1.043-.841 1.889-1.879 1.889a1.883 1.883 0 01-1.878-1.889C10.12 4.845 10.961 4 12 4c1.037 0 1.878.845 1.878 1.888zm.388 1.89c-.594.558-1.39.9-2.266.9a3.312 3.312 0 01-2.267-.9l-3.603 2.928L12 14.74l5.869-4.035-3.603-2.928zm-2.267 8.489s8.51-5.704 9.065-6.082c.552-.374 1.37-.555.661.8l-.073.14c-.72 1.36-1.832 3.464-2.71 6.74H5.062c-.88-3.273-1.992-5.379-2.709-6.737l-.075-.142c-.716-1.356.106-1.175.659-.8.552.377 9.06 6.081 9.06 6.081zM5.08 18.704h13.842v1.96H5.079v-1.96z" fill="#ffffff"/></svg>