<svg width="24" height="24" fill="none" xmlns="http://www.w3.org/2000/svg"><path d="M13.132 16.754a3.581 3.581 0 00-2.802 1.35l2.802 3.227 2.802-3.228a3.59 3.59 0 00-2.802-1.35zM17.647 7.296C17.474 3.63 13.546 3 13.546 3v3.264c.006 0-.005 0 0 0v8.951c.437.036.856.12 1.254.26l2.847-8.18zM8.597 7.248l.017.048 2.847 8.178a5.168 5.168 0 011.254-.259v-8.95c-2.458-2.41-4.913-1.18-4.913-1.18l.328.825.467 1.338zM7.872 7.703c-.003 0 0 0 0 0C3.993 6.466 2 8.52 2 8.52l2.344 2.687 4.954 5.71a5.16 5.16 0 011.398-1.1L7.872 7.704zM19.237 5.395l-.848 2.308-2.822 8.111c.525.285 1 .655 1.398 1.099l4.954-5.71c.634-3.484-2.682-5.808-2.682-5.808z" fill="#ffffff"/></svg>