<svg width="24" height="24" fill="none" xmlns="http://www.w3.org/2000/svg"><path fill-rule="evenodd" clip-rule="evenodd" d="M20.586 8.206c.377-.16.818-.085 1.115.184.296.269.38.678.216 1.03a158.618 158.618 0 00-3.139 7.193h.008l-.46 1.134-.037.088c0 .006-.002.01-.005.014l-.003.006-.922 2.257-.854-2.088a.872.872 0 01-.096-.169l-2.606-6.266h-.012c-.257.008-.51.016-.758.016-.998 0-1.94-.076-2.83-.192l-2.987 6.47a.66.66 0 01-.072.129l-.95 2.1-.782-2.156c-.024-.049-.048-.097-.068-.149l-.38-1.094-.037-.1-2.878-8.267a.89.89 0 01.356-1.03c.345-.24.814-.249 1.167-.02h.004l.024.016.12.072c.113.064.28.16.505.276.445.229 1.103.538 1.94.85.79.293 1.749.586 2.827.814l2.193-4.759c.16-.348.53-.573.938-.565.41.008.77.24.918.594l2.097 5.035a19.568 19.568 0 005.448-1.423zM4.72 9.958l1.711 4.915 1.764-3.817a22.45 22.45 0 01-2.774-.822 18.359 18.359 0 01-.701-.276zm6.306-.313c.641.064 1.315.104 2.012.104l-.974-2.353-1.038 2.249zm6.31 5.268a159.537 159.537 0 011.816-4.202 22.551 22.551 0 01-3.271.71l1.455 3.492zM8.343 19.92l2.894-6.013 1.343.144 2.91 5.87H8.344z" fill="#ffffff"/></svg>