<svg width="24" height="24" fill="none" xmlns="http://www.w3.org/2000/svg"><path d="M19.56 15.148l-3.243-6.74c-.507-1.058-1.313-2.94-2.288-3.959-.055-.063-.114-.126-.17-.189-1.819-2.016-5.785-2.9-7.063-1.749-1.246 1.124-.817 5.004.905 7.06l-.008-.004c.633.798 1.313 1.694 2.15 2.28l2.453 1.745c-.252.079-.504.161-.755.24l-2.264.703-2.256.74-1.55.506c-.432.142-.722.688-.16 1.007l1.265.719c.669.381 1.333.77 2.009 1.144l2.02 1.128c1.348.747 2.709 1.482 4.076 2.197a.228.228 0 00.264-.043.217.217 0 00-.012-.307 196.431 196.431 0 00-3.435-3.109l-1.333-1.171 2.103-.323c.782-.122 1.56-.24 2.347-.35l2.362-.27 2.127-.252c.687-.079.715-.468.455-1.003zm-6.553-4.1L9.509 8.353c-.476-.385-.417-.424-.853-.99-.724-.94-.932-2.693-.338-3.22.593-.526 2.28-.074 3.152.732.491.456.83.963.96 1.238l1.568 2.956-2.213-.971 1.222 2.952z" fill="#ffffff"/></svg>