<svg width="24" height="24" fill="none" xmlns="http://www.w3.org/2000/svg"><path fill-rule="evenodd" clip-rule="evenodd" d="M10.1 5.66c-3.852 1.411-5.815 5.642-4.389 9.446 0 0-3.042-2.683-1.014-8.389 3.56-8.142 14.818-3.272 14.818-3.272l-1.864 3.641a7.49 7.49 0 00-7.55-1.425zm1.551.885c2.968-.427 6.209.963 6.805 4.06.592 3.1 1.989 6.982 1.989 6.982l-.597.054-1.232-.359-1.457-3.095-5.214-1.229 1.267 1.833 3.281 1.627L18.343 22s-.86-.536-1.89-.536c-.432-2.014-1.466-2.737-2.485-2.919l-3.619 1.72-5.8-.245L6.72 17.08a6.496 6.496 0 00-.258-2.202c-1.243-4.86 2.212-7.906 5.19-8.334z" fill="#ffffff"/></svg>