<svg width="24" height="24" fill="none" xmlns="http://www.w3.org/2000/svg"><path fill-rule="evenodd" clip-rule="evenodd" d="M17.345 12.271L21 9.74l-1.544-.433-2.723-.764 1.194-4.32-4.028 1.863L12.074 2l-.39.83c-.508 1.08-1.01 2.145-1.514 3.22L6.18 4.108 7.288 8.45A14673.465 14673.465 0 013 9.563l3.606 2.602-2.286 3.23-.292.413.25-.018c.158-.011.305-.021.452-.033l1.356-.111.542-.045c.135-.01.27-.02.406-.028.298-.02.596-.04.89-.083.569-.084 1.134-.191 1.7-.299l.31-.058a.275.275 0 00.172-.122c.37-.685.738-1.373 1.105-2.061l.427-.8.38-.703.18-.331.025.04c.015.021.026.038.035.056l.39.743c.533 1.015 1.065 2.03 1.594 3.047.048.093.105.14.202.158l.945.177c.657.124 1.314.248 1.973.36.352.06.708.094 1.065.13l.371.037c.234.025.47.047.712.069l.344.031-.22-.323-2.289-3.37zm-4.536 2.163l-.615-1.169-.034.056c-.017.027-.03.047-.04.067l-.195.365c-.384.716-.767 1.433-1.147 2.15-.045.085-.093.132-.189.148-.575.1-1.15.202-1.724.305a295.477 295.477 0 01-.925.167l-.29.053.036.043c.021.026.037.045.055.064l.45.481c.466.499.932.997 1.403 1.49.135.14.196.261.16.47-.084.497-.15.996-.217 1.496l-.07.52a87.04 87.04 0 00-.073.54l-.04.3.118-.056.077-.038.492-.237c.675-.326 1.35-.652 2.026-.974a.263.263 0 01.202.006c.625.306 1.248.615 1.87.924l.651.322c.033.016.066.03.103.046l.062.027-.05-.388-.123-.956a177.91 177.91 0 00-.217-1.645c-.014-.102.014-.171.086-.245.544-.56 1.083-1.125 1.622-1.69l.058-.061c.082-.086.162-.174.245-.265l.125-.137c-.212-.04-.423-.08-.633-.118-.768-.144-1.523-.286-2.276-.433a.334.334 0 01-.202-.15c-.2-.367-.394-.737-.587-1.107l-.194-.37z" fill="#BD9E59"/></svg>