<svg width="24" height="24" fill="none" xmlns="http://www.w3.org/2000/svg"><path d="M17.723 8.588l-1.364 1.36c.54.92.85 1.989.85 3.135 0 1.73-.697 3.28-1.835 4.414a6.256 6.256 0 01-4.429 1.83 6.249 6.249 0 01-4.428-1.83 6.193 6.193 0 01-1.835-4.414c0-1.73.697-3.28 1.835-4.415a6.255 6.255 0 014.428-1.83 6.23 6.23 0 013.333.963l-1.053 1.05a4.821 4.821 0 00-5.681.833 4.791 4.791 0 000 6.79 4.815 4.815 0 003.405 1.405 4.822 4.822 0 003.406-1.405 4.784 4.784 0 001.41-3.395c0-.737-.172-1.44-.475-2.066l-2.21 2.203a2.1 2.1 0 01-.617 1.364c-.391.385-.916.622-1.51.622a2.128 2.128 0 01-1.51-3.632c.392-.385.916-.622 1.51-.622.054 0 .107.004.161.008l-.456.454a1.026 1.026 0 000 1.447 1.034 1.034 0 001.452 0l.743-.74 1.935-1.93 1.034-1.03 1.502-1.493V7.66H21.27l-1.973-1.967 2.264-2.257c-.253-.252-.337-.317-.735-.714-.399-.397-.448-.443-.724-.722l-2.253 2.246-1.965-1.96v3.361a8.944 8.944 0 00-4.939-1.482c-2.467 0-4.712 1-6.325 2.613A8.879 8.879 0 002 13.083a8.879 8.879 0 002.62 6.305A8.948 8.948 0 0010.945 22c2.468 0 4.713-1 6.326-2.612a8.878 8.878 0 001.394-10.8h-.942z" fill="#BD9E59"/></svg>