<svg width="24" height="24" fill="none" xmlns="http://www.w3.org/2000/svg"><path d="M19.41 14.148l-.049-.084a16.018 16.018 0 00-.342-.562c-.013-.02-.03-.042-.042-.063a13.593 13.593 0 00-.335-.492l-.074-.106a14.18 14.18 0 00-.714-.913c.682.434 1.327.92 1.993 1.432.717.542 1.23 1.204 2.134 1.794.215-2.139-1.457-3.997-2.795-5.463-1.343-1.475-2.85-2.353-4.642-3.155a17.7 17.7 0 00-8.51-1.485c-.955.09-1.916.233-2.842.563 1.813.705 3.525 1.276 5.197 1.89l.52.191a8.684 8.684 0 00-.523.021 10.99 10.99 0 00-.698.069c-.393.048-.794.116-1.205.206-.042.011-.088.019-.13.03-.202.045-.406.098-.613.153l-.085.024c-.189.053-.38.111-.573.172l-.123.04c-.21.069-.422.145-.637.225-.042.016-.084.031-.127.05-.199.077-.398.156-.6.244-.029.013-.058.023-.087.037-.22.095-.444.198-.67.304-.05.024-.097.048-.148.071a18.85 18.85 0 00-.69.35c.056.227.117.447.18.667l.059.196c.045.15.09.301.138.447l.072.215c.047.143.098.283.148.42.024.064.045.128.07.191.066.177.135.35.204.519l.023.058c.08.188.16.37.242.55l.072.154c.06.127.122.254.185.379.03.058.062.116.09.174.062.117.123.23.187.345.029.052.058.105.09.158.077.133.154.262.233.392l.048.08c.096.153.197.301.295.444l.08.111c.074.106.15.212.228.313.034.047.071.092.106.137.071.093.146.183.217.273l.107.127c.085.1.17.196.257.291l.072.08c.111.119.223.235.34.349.026.027.053.05.076.074.09.087.178.17.269.252.04.034.077.068.116.103l.247.209.12.098c.09.074.183.143.276.214l.087.067c.122.09.247.177.372.262.021.015.045.029.066.042.104.069.207.132.31.196l.123.071c.087.053.178.103.268.154l.127.069c.096.05.191.1.287.148l.103.05c.13.064.263.125.396.183.013.005.027.01.037.016.12.05.239.1.358.145.04.016.083.032.123.045.095.035.188.069.284.1.045.017.087.03.132.046.098.032.197.063.295.092l.111.035c.271.077.544.145.815.204l.12.024c.098.018.196.04.294.055l.133.024c.098.016.196.032.295.045l.12.016c.132.018.264.034.4.045h.005c.138.013.276.024.412.034a12.118 12.118 0 00.409.019c.042.002.087.002.13.002.095.003.19.006.289.006h.114c.156 0 .316-.003.47-.008.026 0 .053-.003.08-.003.137-.005.275-.013.413-.024.03-.002.059-.002.088-.005a13.065 13.065 0 00.945-.103c.026-.003.053-.008.08-.01.148-.022.297-.046.443-.072l.087-.016c.13-.024.258-.048.385-.074a16.769 16.769 0 001.003-.246c.136-.038.266-.077.399-.12l.087-.026c.117-.037.234-.077.348-.117l.045-.015a15.45 15.45 0 00.451-.17c.112-.045.22-.087.33-.135l.029-.013c.114-.05.225-.1.334-.151.027-.01.05-.024.077-.037.104-.05.204-.098.303-.15l.015-.009a10.42 10.42 0 00.364-.201c.096-.056.189-.109.276-.164v-.003a10.418 10.418 0 00-.093-.447c-.01-.043-.02-.087-.032-.13a13.867 13.867 0 00-.103-.381c-.01-.034-.019-.072-.03-.106a11.805 11.805 0 00-.161-.497c-.01-.035-.027-.07-.037-.104a10.626 10.626 0 00-.218-.558 14.33 14.33 0 00-.499-1.078l-.064-.121c-.09-.149-.177-.307-.268-.464zm-7.905-4.362a9.792 9.792 0 013.134 1.488c-.891 2.89-2.263 5.802-3.742 6.461-.971-1.44-.57-4.78.608-7.949z" fill="#BD9E59"/></svg>