<svg width="12" height="12" fill="none" xmlns="http://www.w3.org/2000/svg"><g clip-path="url(#clip0)"><mask id="a" maskUnits="userSpaceOnUse" x="-.667" y="-.667" width="13" height="13" fill="#000"><path fill="#fff" d="M-.667-.667h13v13h-13z"/><path fill-rule="evenodd" clip-rule="evenodd" d="M1.333 7.167v-3.5l3.5-2.334 3.192 1.915V6.97l-.6.353-.6-.353V4.334l-.27-.178-1.5-.99-.348-.23-.337.247-1.35.99-.245.18v3.679l-1.442-.865zm2.642 1.585l3.192 1.915 3.5-2.334v-3.5l-1.442-.865V7.655l-.295.174-1.2.708-.305.179-.304-.18-1.2-.707-.296-.174V4.98l-.882-.583-.768.564v3.79z"/></mask><path fill-rule="evenodd" clip-rule="evenodd" d="M1.333 7.167v-3.5l3.5-2.334 3.192 1.915V6.97l-.6.353-.6-.353V4.334l-.27-.178-1.5-.99-.348-.23-.337.247-1.35.99-.245.18v3.679l-1.442-.865zm2.642 1.585l3.192 1.915 3.5-2.334v-3.5l-1.442-.865V7.655l-.295.174-1.2.708-.305.179-.304-.18-1.2-.707-.296-.174V4.98l-.882-.583-.768.564v3.79z" fill="url(#paint0_linear)"/><path d="M1.333 3.667l-.665-.999-.535.356v.643h1.2zm0 3.5h-1.2v.68l.583.349.617-1.03zm3.5-5.834L5.452.304 4.8-.086l-.632.42.665 1zm3.192 1.915h1.2V2.57l-.582-.35-.618 1.03zm0 3.722l.61 1.034.59-.349V6.97h-1.2zm-.6.353l-.609 1.034.61.359.608-.359-.609-1.034zm-.6-.353h-1.2v.685l.591.349.61-1.034zm0-2.636h1.2v-.646l-.539-.356-.66 1.002zm-.27-.178l-.66 1.001.66-1.001zm-1.5-.99l.662-1.002-.661 1.002zm-.348-.23l.661-1.002-.697-.46-.673.494.71.968zm-.337.247l-.71-.968.71.968zm-1.35.99l.71.967-.71-.967zm-.245.18l-.71-.968-.49.36v.608h1.2zm0 3.679L2.158 9.06l1.817 1.09v-2.12h-1.2zm1.2.72h-1.2v.68l.583.349.617-1.03zm3.192 1.915l-.618 1.029.652.39.631-.42-.665-1zm3.5-2.334l.665.999.535-.356v-.643h-1.2zm0-3.5h1.2v-.68l-.583-.349-.617 1.03zm-1.442-.865l.618-1.029-1.818-1.09v2.12h1.2zm0 3.687l.61 1.034.59-.348v-.686h-1.2zm-.295.174l.609 1.034-.61-1.034zm-1.2.708l-.61-1.034.61 1.034zm-.305.179L6.816 9.75l.61.359.608-.36-.609-1.033zm-.304-.18L6.51 9.57l.61-1.033zm-1.2-.707l.609-1.033-.61 1.033zm-.296-.174h-1.2v.686l.591.348.61-1.034zm0-2.675h1.2v-.646l-.539-.356-.66 1.002zm-.882-.583l.661-1.001-.697-.46-.673.494.71.967zm-.768.564l-.71-.968-.49.36v.608h1.2zM.133 3.667v3.5h2.4v-3.5h-2.4zM4.168.335l-3.5 2.333 1.331 1.997 3.5-2.333L4.168.335zm4.475 1.884L5.45.304 4.216 2.362l3.192 1.915L8.643 2.22zm.582 4.75V3.25h-2.4v3.72h2.4zm-1.19 1.388l.6-.353-1.219-2.068-.6.353 1.218 2.068zm-1.819-.353l.6.353L8.034 6.29l-.6-.353-1.218 2.068zm-.59-3.347V6.97h2.4V4.657h-2.4zm0-.323v.323h2.4v-.323h-2.4zm.269.823l.27.178 1.321-2.003-.27-.178-1.321 2.003zm-1.5-.99l1.5.99 1.322-2.003-1.5-.99-1.322 2.003zm-.349-.23l.349.23 1.322-2.003-.349-.23-1.322 2.003zm1.034.214l.337-.247-1.42-1.936-.336.247L5.08 4.151zm-1.35.99l1.35-.99-1.42-1.936-1.35.99L3.73 5.14zm-.245.18l.245-.18-1.42-1.936-.244.18L3.485 5.32zm.49-.664v-.304h-2.4v.304h2.4zm0 3.375V4.657h-2.4v3.375h2.4zm-3.259.164l1.442.865 1.235-2.058-1.442-.865L.716 8.196zM3.358 9.78l3.191 1.915 1.235-2.058-3.191-1.915L3.358 9.78zm4.474 1.884l3.5-2.333-1.33-1.997-3.5 2.333 1.33 1.997zm4.035-3.332v-3.5h-2.4v3.5h2.4zm-.583-4.529L9.843 2.94 8.608 4.997l1.441.865 1.235-2.058zm-3.259.164v3.345h2.4V3.968h-2.4zm0 3.345v.342h2.4v-.342h-2.4zm.591-.691l-.295.174 1.218 2.067.295-.174-1.218-2.067zm-.295.174l-1.2.707L8.339 9.57l1.2-.707-1.218-2.067zm-1.2.707l-.305.18L8.034 9.75l.305-.18-1.218-2.067zm.913.18l-.304-.18L6.51 9.57l.305.18 1.218-2.068zm-.304-.18l-1.2-.707L5.31 8.863l1.2.707L7.73 7.503zm-1.2-.707l-.296-.174-1.218 2.067.295.174L6.53 6.796zm.295.86v-.343h-2.4v.342h2.4zm0-.343V4.98h-2.4v2.333h2.4zm-.539-3.335l-.882-.582-1.322 2.003.882.582 1.322-2.003zM4.034 3.43l-.768.563 1.419 1.935.768-.563-1.42-1.935zM2.775 4.96v3.792h2.4V4.96h-2.4z" fill="#2E2650" mask="url(#a)"/></g><defs><linearGradient id="paint0_linear" x1="6" y1="1" x2="6" y2="11.333" gradientUnits="userSpaceOnUse"><stop offset=".01" stop-color="#FED3FE"/><stop offset=".196" stop-color="#DC70F1"/><stop offset=".477" stop-color="#EE8FF2"/><stop offset=".68" stop-color="#E131F8"/><stop offset="1" stop-color="#FED3FE"/></linearGradient><clipPath id="clip0"><path fill="#fff" d="M0 0h12v12H0z"/></clipPath></defs></svg>