<svg width="24" height="24" fill="none" xmlns="http://www.w3.org/2000/svg"><path d="M22 6.46C21.935 2.315 18.406 2 18.406 2s1.428 1.1 1.176 3.613c-.22 2.168-3.41 2.886-4.277 3.041l-1.236-.687-1.306-3.11L12 3.853l-.764 1.006-1.306 3.11-1.236.686c-.868-.155-4.057-.873-4.277-3.041C4.165 3.1 5.593 2 5.593 2s-3.526.314-3.592 4.46c-.063 4.145 3.06 4.95 3.063 4.953.2 1.349.129 2.397.129 2.397 3.498.566 5.233 4.13 5.233 4.13s-2.21-2.592-3.96-2.465c.192.798 1.718 3.737 1.718 3.737L12 21.598l3.816-2.386s1.526-2.94 1.717-3.737c-1.749-.124-3.959 2.465-3.959 2.465s1.735-3.564 5.233-4.13c0 0-.071-1.051.13-2.397.002-.003 3.125-.808 3.062-4.952zM7.45 11.49c.544-.187 2.17-.139 2.923 1.246-1.534.41-2.688-.726-2.923-1.247zm6.175 1.246c.753-1.385 2.379-1.433 2.923-1.247-.235.52-1.386 1.657-2.923 1.247z" fill="#ffffff"/></svg>