<svg width="29" height="53" viewBox="0 0 29 53" fill="none" xmlns="http://www.w3.org/2000/svg">
<path d="M4.61409 23.4142C4.61409 23.4142 4.61409 17.1641 4.61409 15.2835C4.61409 13.403 2.21503 13.0987 2.21503 13.0987V7.30327C2.21503 7.30327 7.36074 6.25018 7.9162 0C9.49058 0 12.5678 0 12.5678 0L26.4476 8.88291V24.4673L18.988 17.1641C18.988 17.1641 21.6903 17.1641 20.7873 14.227C19.5878 13.2868 12.2679 9.03335 12.2679 9.03335V20.7781C12.2679 20.7781 23.4488 24.1664 29 34.8547C27.5006 36.5095 27.1257 37.4156 27.1257 37.4156L26.9758 44.3428C26.9758 44.3428 16.1698 47.5055 10.6935 53C8.1786 50.4767 5.63301 47.1943 5.63301 47.1943L9.01009 43.8059L10.8094 45.6865C10.8094 45.6865 14.5613 42.9751 18.0884 41.6963C18.0884 40.0415 18.1633 32.8237 18.1633 32.8237C18.1633 32.8237 12.3429 25.9717 4.839 25.9717C4.68906 25.2948 4.61409 23.4142 4.61409 23.4142Z" fill="#B89E63"/>
<path d="M7.7221 41.6973L3.86188 37.8242L0.00165558 41.6973L3.86188 45.5704L7.7221 41.6973Z" fill="#B89E63"/>
<path d="M12.9543 36.4486L9.09412 32.5755L5.2339 36.4486L9.09412 40.3217L12.9543 36.4486Z" fill="#B89E63"/>
</svg>
