<svg width="24" height="24" fill="none" xmlns="http://www.w3.org/2000/svg"><path d="M2.842 2.922C4.514 2.287 6.057 2 7.468 2c1.659-.002 3.127.404 4.357 1.067.06.033.115.065.175.1 1.265-.72 2.795-1.169 4.534-1.167 1.409 0 2.952.287 4.624.922L22 3.24l-.106.89c-.21 1.78-.67 3.284-1.326 4.535a9.268 9.268 0 01-1.77 2.381 8.78 8.78 0 01-1.538 1.184c0 .046.004.09.004.136a8.831 8.831 0 01-1.051 4.167c-.738 1.395-1.89 2.75-3.523 4.012l-.707.546-.708-.546c-1.633-1.263-2.785-2.617-3.523-4.012a8.83 8.83 0 01-1.05-4.167c0-.053.001-.105.003-.157l-.07-.04a8.94 8.94 0 01-2.948-3.046c-.791-1.335-1.345-2.989-1.581-4.99L2 3.24l.842-.32zm11.522 8.09c.14-.042.28-.088.419-.138a6.376 6.376 0 00-.165-.659 9.237 9.237 0 00-1.465-2.786 8.96 8.96 0 00-1.168-1.268c-.181.161-.367.34-.552.538a9.68 9.68 0 00-1.734 2.608 9.438 9.438 0 00-.426 1.322 6.28 6.28 0 00-.052.245l.111.042c.871.297 1.793.431 2.678.443a8.923 8.923 0 002.354-.347zm3.965-3.062c.494-.833.892-1.877 1.134-3.176-1.088-.331-2.062-.475-2.93-.475a6.952 6.952 0 00-2.492.443c.056.055.112.11.163.168a11.43 11.43 0 012.207 3.458c.184.447.336.887.455 1.318A6.762 6.762 0 0018.33 7.95zm-6.346 10.193c1.024-.905 1.726-1.809 2.189-2.684.38-.723.603-1.43.709-2.121-.11.027-.217.053-.329.076-.742.154-1.556.244-2.41.244l-.15-.002-.132.002c-.854 0-1.669-.09-2.41-.244-.125-.024-.245-.055-.366-.084.106.694.327 1.402.711 2.129.464.877 1.163 1.78 2.188 2.684zM5.477 7.598a6.976 6.976 0 001.332 1.797c.098.096.2.186.302.272l.04-.14c.127-.404.279-.791.448-1.167.27-.655.609-1.316 1.03-1.96.378-.576.82-1.14 1.332-1.658a7.16 7.16 0 00-.52-.177 7.1 7.1 0 00-1.971-.268c-.867 0-1.841.144-2.93.475.206 1.125.533 2.056.937 2.826z" fill="#ffffff"/></svg>