<svg width="24" height="24" fill="none" xmlns="http://www.w3.org/2000/svg"><path d="M11.694 16.261c1.195-6.855-4.9-8.455-7.539-8.074-.632 2.53.438 8.608 7.539 8.074z" fill="#ffffff"/><path d="M11.256 16.51c.282 1.914.958 4.097 1.655 5.481 1.49.114 1.625-.91 1.625-.91s-1.724-2.843-1.91-4.98c-.295-3.995 1.165-5.963 2.78-7.889-1.113 1.905-2.031 3.877-1.671 7.47C23.119 11.704 17.335 2 17.335 2s-.473 1.253-5.247 4.316c-2.638 1.693-2.617 4.228-2.066 6.166a2.8 2.8 0 01.368.504c.437.745.663 1.659.75 2.51" fill="#ffffff"/></svg>