<svg width="24" height="24" fill="none" xmlns="http://www.w3.org/2000/svg"><path d="M12 7.865c-1.26 0-2.419.204-3.541 1.919-1.122 1.715-2.52 2.843-4.396 3.56-1.877.716-.989 1.748.51 1.475 1.5-.273 3.95-1.3 4.7-2.363v3.255s-3.302 2.085-4.36 2.806c-1.057.722-1.398 2.844 1.123 2.432C8.556 20.538 12 19.645 12 19.645V7.865zM12 7.865c1.26 0 2.419.204 3.541 1.919 1.122 1.715 2.52 2.843 4.396 3.56 1.877.716.99 1.748-.51 1.475-1.5-.273-3.95-1.3-4.7-2.363v3.255s3.306 2.09 4.36 2.806c1.057.722 1.398 2.844-1.122 2.432-2.52-.411-5.965-1.304-5.965-1.304V7.865z" fill="#ffffff"/><path d="M12 8.142a2.564 2.564 0 002.557-2.571C14.557 4.15 13.412 3 12 3a2.564 2.564 0 00-2.557 2.57c0 1.42 1.145 2.572 2.557 2.572z" fill="#ffffff"/></svg>