<svg version="1.0" xmlns="http://www.w3.org/2000/svg" width="64" height="46.667" viewBox="0 0 48 35"><path d="M14.4 3.4c-2.2 2.2-3.5 4.7-4 7.4-.5 3.4-1.1 4.1-3.5 4.6-4.9.9-7 4-6.7 9.4l.3 4.7 6.8.3 6.7.3V27c0-7.8 5.1-13 12.8-13 4.7 0 7.3 2.5 7.5 7 .2 2.4-.4 3.6-2.3 4.8l-2.5 1.6 1.9-2.1c1.4-1.7 1.6-2.8.9-5-1.3-3.9-7.4-4.5-10.9-1.2-3.1 3-3.3 9.5-.3 13.3 2 2.5 2.4 2.6 11.7 2.6 6-.1 10.3-.5 11.3-1.3 2.5-1.9 3.9-5.3 3.9-9.5 0-3.3-.6-4.5-3.1-6.6-1.7-1.4-3.4-2.6-3.8-2.6-.4 0-.8-1.6-.9-3.6C39.9 3.8 34.5 0 23.9 0c-5.6 0-6.4.3-9.5 3.4z" fill="#fff"/></svg>