<svg width="24" height="24" fill="none" xmlns="http://www.w3.org/2000/svg"><path d="M12 2C6.476 2 2 6.476 2 12s4.476 10 10 10 10-4.476 10-10S17.519 2 12 2zm0 18.487a8.493 8.493 0 11.002-16.986A8.493 8.493 0 0112 20.487z" fill="#ffffff"/><path d="M17.264 6.731a7.415 7.415 0 00-5.268-2.18c-2.061 0-3.918.834-5.27 2.18A7.414 7.414 0 004.547 12c0 2.06.835 3.918 2.18 5.268a7.414 7.414 0 005.27 2.181c2.06 0 3.917-.835 5.268-2.18a7.414 7.414 0 002.18-5.27c0-2.06-.829-3.917-2.18-5.268zm-6.307-.594h2.087v2.086h-2.087V6.137zm-2.733 6.906H6.137v-2.086h2.087v2.086zm4.82 4.82h-2.087v-2.086h2.087v2.086zm.934-3.886h-3.96v-3.96h3.96v3.96zm1.8-.934v-2.086h2.086v2.086h-2.087z" fill="#ffffff"/></svg>