<svg width="24" height="24" fill="none" xmlns="http://www.w3.org/2000/svg"><path fill-rule="evenodd" clip-rule="evenodd" d="M14.423 10.993a7.78 7.78 0 01-.208 1.752 9.147 9.147 0 01-.745 1.998c-.232.466-.499.902-.784 1.319-.202.296-.413.587-.64.859-.029.035-.043.052-.058.052-.015 0-.03-.017-.058-.052a13.145 13.145 0 01-1.253-1.85c-.26-.476-.49-.972-.674-1.5a8.022 8.022 0 01-.361-1.437c-.04-.27-.07-.539-.08-.81l-.004-.078c-.005-.1-.01-.2-.008-.3.009-.451.049-.896.128-1.335a8.612 8.612 0 01.592-1.884c.248-.571.548-1.1.879-1.602.147-.224.297-.439.453-.65.084-.114.17-.223.258-.332l.073-.092c.055-.07.064-.066.116 0 .395.514.781 1.04 1.115 1.618.202.35.39.714.555 1.092.18.417.333.85.453 1.3.11.42.187.847.22 1.285.019.218.034.433.031.647zm-3.262 6.367c-.162 0-.306-.022-.45-.043-.282-.04-.567-.084-.846-.148a7.703 7.703 0 01-1.73-.596 5.654 5.654 0 01-1.228-.816 5.15 5.15 0 01-1.115-1.397 6.549 6.549 0 01-.665-1.84c-.074-.35-.12-.704-.156-1.06a4.8 4.8 0 01-.016-.218c-.002-.049-.005-.097-.009-.146-.018-.263-.016-.526-.014-.788l.002-.26c0-.176.01-.355.028-.53.009-.079.021-.09.091-.082l.205.024a9.463 9.463 0 011.9.387 6.513 6.513 0 011.483.677c.028.017.058.036.088.052.043.027.058.064.049.115a5.342 5.342 0 00-.049.387l-.007.072a3.53 3.53 0 00-.02.333v.409c.002.39.051.774.125 1.152.092.472.236.925.417 1.367.159.393.352.768.566 1.131.202.342.423.671.662.986a11.728 11.728 0 00.558.684c.042.05.084.098.13.148zm1.692-.045c-.009.01-.02.023-.017.05.141-.005.279-.023.414-.04l.14-.018c.472-.07.94-.17 1.4-.312a6.546 6.546 0 001.593-.72c.346-.22.67-.474.962-.774a5.29 5.29 0 00.922-1.291c.242-.475.416-.977.539-1.503a8.62 8.62 0 00.18-1.12c.022-.232.043-.468.046-.7.002-.135.002-.27.002-.404 0-.135 0-.27.002-.404a2.853 2.853 0 00-.01-.243 2.862 2.862 0 01-.009-.244c0-.018-.003-.038-.006-.057a.507.507 0 01-.006-.037c-.006-.042-.03-.057-.067-.054a8.284 8.284 0 00-2.64.596c-.359.145-.705.32-1.036.532-.077.048-.08.057-.064.154.046.27.06.544.074.82l.008.163a.337.337 0 01-.003.097c-.012.066-.012.133-.012.2 0 .152-.016.306-.033.46l-.007.065a7.473 7.473 0 01-.576 2.063 9.995 9.995 0 01-1.16 1.947c-.2.267-.408.527-.631.769l-.005.005zm-.415.93h.012c.069-.01.136-.018.202-.02.325-.019.65-.055.971-.103.395-.058.787-.134 1.173-.233.497-.13.98-.294 1.446-.508.413-.19.802-.424 1.17-.693.306-.224.576-.48.833-.753.193-.209.368-.432.524-.668.028-.041.041-.061.06-.069.019-.007.043 0 .09.011.462.112.907.279 1.338.475.512.233.99.52 1.455.829l.002.001c.08.054.158.108.237.165.062.042.062.049.019.106a11.486 11.486 0 01-.968 1.137 8.009 8.009 0 01-.98.865c-.441.33-.916.602-1.434.795-.37.14-.753.242-1.148.288a5.32 5.32 0 01-.622.042 5.774 5.774 0 01-1.204-.136 7.46 7.46 0 01-1.617-.578 11.361 11.361 0 01-1.17-.665 15.346 15.346 0 01-.37-.258l-.002-.001a.061.061 0 01-.017-.028zm-.888 0h.012c-.002.018-.01.025-.019.032a7.459 7.459 0 01-3.158 1.5c-.397.087-.799.132-1.203.135-.208 0-.417-.018-.622-.042a4.843 4.843 0 01-1.148-.288 5.763 5.763 0 01-1.434-.795c-.349-.26-.677-.55-.98-.865a11.505 11.505 0 01-.968-1.137c-.043-.058-.043-.064.019-.106l.238-.166c.466-.309.944-.596 1.455-.829a7.482 7.482 0 011.339-.475c.047-.012.071-.018.09-.01.019.007.032.027.06.068.156.236.33.46.524.668.257.272.527.53.833.753.367.27.756.502 1.17.693.465.214.95.378 1.446.508a11 11 0 001.173.233c.321.048.646.084.97.102.067.003.134.012.203.02z" fill="#ffffff"/></svg>