<svg width="24" height="24" fill="none" xmlns="http://www.w3.org/2000/svg"><path d="M22 10.764a3.19 3.19 0 00-1.468-2.684l-.205-1.762a.224.224 0 00-.159-.187.226.226 0 00-.233.074l-1.076 1.369c-.014 0-.028-.004-.046-.004h-.003c-.65 0-1.266.202-1.783.549a2.912 2.912 0 00-.226-.333 3.162 3.162 0 00-1.107-.884l-.414-1.733a.22.22 0 00-.18-.166.223.223 0 00-.223.102l-.912 1.496a3.189 3.189 0 00-1.649.676 3.18 3.18 0 00-.318.297 3.193 3.193 0 00-.318-.3 3.206 3.206 0 00-1.648-.676l-.91-1.482a.223.223 0 00-.222-.103.219.219 0 00-.18.167l-.414 1.733A3.055 3.055 0 006.973 8.13 3.168 3.168 0 005.19 7.58h-.003c-.015 0-.029.003-.046.003L4.065 6.21a.22.22 0 00-.233-.075.211.211 0 00-.156.184L3.471 8.08a3.185 3.185 0 00-.774.7 3.173 3.173 0 00-.623 2.667 3.19 3.19 0 003.113 2.507c.226 0 .452-.025.682-.074h.004a3.138 3.138 0 001.27-.594c.466.495 1.311 1.552 1.1 2.504-.287 1.298-1.39.813-1.39 2.015 0 1.207 1.244 1.362 1.966 1.362h6.366c.721 0 1.966-.155 1.966-1.362 0-1.206-1.1-.721-1.39-2.015-.212-.952.637-2.01 1.1-2.504.364.279.792.488 1.27.594a3.19 3.19 0 003.795-2.426v-.007c.05-.227.074-.457.074-.683zm-15.7.888a1.417 1.417 0 01-1.113.534c-.326 0-.637-.113-.885-.312a1.42 1.42 0 01.587-2.496h.004a1.432 1.432 0 011.185.28 1.408 1.408 0 01.534 1.11c0 .325-.113.636-.311.884zm9.394-1.567a1.409 1.409 0 01-.502.806 1.417 1.417 0 01-1.998-.226A1.417 1.417 0 0114.3 8.359c.102 0 .201.01.3.032h.004c.336.074.608.255.806.502.198.248.311.559.311.884.007.103-.003.202-.028.308zm-4.888.58c-.198.248-.47.428-.806.502a1.908 1.908 0 01-.308.036c-.325 0-.636-.114-.884-.312a1.417 1.417 0 01-.223-1.998 1.42 1.42 0 01.807-.502h.003a1.417 1.417 0 011.185.28 1.407 1.407 0 01.534 1.11c.004.325-.11.636-.308.884zm9.394.403a1.408 1.408 0 01-.502.806 1.417 1.417 0 01-1.192.28 1.408 1.408 0 01-.807-.502 1.417 1.417 0 01-.279-1.189v-.003c.074-.336.255-.608.502-.807a1.417 1.417 0 011.185-.279h.003c.337.074.609.255.807.502.198.248.311.56.311.884.004.103-.007.206-.028.308z" fill="#ffffff"/></svg>