<svg width="24" height="24" fill="none" xmlns="http://www.w3.org/2000/svg"><path d="M17.846 10.378c-.103-.725-.103-1.931-.303-2.046-1.26 1.105-.984 2.972-.984 4.182 0 2.197-1.784 2.166-1.784 2.166-2.227-2.66.364-4.77.364-4.77C15.142 4.323 11.755 2 11.755 2S8.368 4.324 8.368 9.91c0 0 2.59 2.11.364 4.77 0 0-1.784.031-1.784-2.166 0-1.207.276-3.077-.984-4.182-.2.115-.2 1.321-.303 2.046C5.563 11.104 4 13.847 4 13.847s.677 5.184 6.342 4.268v2.604c0 .707.633 1.281 1.413 1.281s1.413-.574 1.413-1.28v-2.605c5.665.913 6.342-4.268 6.342-4.268s-1.566-2.743-1.665-3.469z" fill="#ffffff"/></svg>